<svg xmlns="http://www.w3.org/2000/svg" xmlns:xlink="http://www.w3.org/1999/xlink" width="300" height="300" viewBox="0 0 300 300" fill="none"><g opacity="0.88"><path d="M137.5 100.001C144.404 96.0152 155.597 96.0152 162.5 100.001L283.333 169.764C292.538 175.078 292.538 183.695 283.333 189.009L162.5 258.772C155.597 262.758 144.404 262.758 137.5 258.772L16.6672 189.009C7.46251 183.695 7.46247 175.078 16.6672 169.764L137.5 100.001Z"   fill="url(#linear_fill_UIkrc_Esa2nPVIDCeI1rS)" ></path></g><g opacity="0.7"><path d="M137.5 67.2043C144.404 63.2184 155.596 63.2184 162.5 67.2043L254.935 120.572C264.14 125.886 264.14 134.502 254.935 139.817L162.5 193.184C155.596 197.17 144.404 197.17 137.5 193.184L45.0647 139.817C35.86 134.503 35.8599 125.886 45.0647 120.572L137.5 67.2043Z"   fill="url(#linear_fill_5DgkJXaIB9ExrXGA0JpRW)" ></path></g><g opacity="0.7"><path d="M137.5 41.2295C144.403 37.2438 155.597 37.2438 162.5 41.2295L222.991 76.1539C232.196 81.4684 232.196 90.0847 222.991 95.3989L162.5 130.323C155.597 134.309 144.403 134.309 137.5 130.323L77.009 95.3989C67.8043 90.0847 67.8043 81.4684 77.009 76.1539L137.5 41.2295Z"   fill="url(#linear_fill_iCiPeKSCwkYQJvq80LoKS)" fill-opacity="0.7"></path></g><g opacity="0.7"><path d="M137.499 99.9987C144.402 96.0132 155.596 96.0136 162.5 99.9987L188.757 115.156L162.5 130.321C155.596 134.307 144.402 134.307 137.499 130.321L111.241 115.156L137.499 99.9987Z"   fill="url(#linear_fill_ogGtflgFx9i1R76-3-6JC)" fill-opacity="0.7"></path></g><defs><linearGradient id="linear_fill_UIkrc_Esa2nPVIDCeI1rS" x1="-10.3271484375" y1="146.013671875" x2="271.5751953125" y2="184.33984375" gradientUnits="userSpaceOnUse"><stop offset="0" stop-color="#1C64FD"  /><stop offset="1" stop-color="#8059F3"  /></linearGradient><linearGradient id="linear_fill_5DgkJXaIB9ExrXGA0JpRW" x1="20.025390625" y1="103.140625" x2="248.5576171875" y2="134.2109375" gradientUnits="userSpaceOnUse"><stop offset="0" stop-color="#12B886"  /><stop offset="1" stop-color="#1C64FD"  /></linearGradient><linearGradient id="linear_fill_iCiPeKSCwkYQJvq80LoKS" x1="54.1689453125" y1="65.830078125" x2="222.66796875" y2="88.73828125" gradientUnits="userSpaceOnUse"><stop offset="0" stop-color="#1C64FD"  /><stop offset="1" stop-color="#8059F3"  /></linearGradient><linearGradient id="linear_fill_ogGtflgFx9i1R76-3-6JC" x1="137.9677734375" y1="97.009765625" x2="164.3330078125" y2="129.802734375" gradientUnits="userSpaceOnUse"><stop offset="0" stop-color="#8059F3"  /><stop offset="1" stop-color="#1C64FD"  /></linearGradient></defs></svg>